<svg width="24" height="24" xmlns="http://www.w3.org/2000/svg">
 <title/>

 <g>
  <title>background</title>
  <rect fill="none" id="canvas_background" height="402" width="582" y="-1" x="-1"/>
 </g>
 <g>
  <title>Layer 1</title>
  <path fill="#ffffff" id="svg_1" d="m17.484,12c0.844,0 1.5,-0.656 1.5,-1.5s-0.656,-1.5 -1.5,-1.5s-1.5,0.656 -1.5,1.5s0.656,1.5 1.5,1.5zm-3,-3.984c0.844,0 1.5,-0.656 1.5,-1.5s-0.656,-1.5 -1.5,-1.5s-1.5,0.656 -1.5,1.5s0.656,1.5 1.5,1.5zm-4.968,0c0.844,0 1.5,-0.656 1.5,-1.5s-0.656,-1.5 -1.5,-1.5s-1.5,0.656 -1.5,1.5s0.656,1.5 1.5,1.5zm-3,3.984c0.844,0 1.5,-0.656 1.5,-1.5s-0.656,-1.5 -1.5,-1.5s-1.5,0.656 -1.5,1.5s0.656,1.5 1.5,1.5zm5.484,-9c4.969,0 9,3.609 9,8.016c0,2.766 -2.25,4.969 -5.016,4.969l-1.734,0c-0.844,0 -1.5,0.656 -1.5,1.5c0,0.375 0.141,0.703 0.375,0.984s0.375,0.656 0.375,1.031c0,0.844 -0.656,1.5 -1.5,1.5c-4.969,0 -9,-4.031 -9,-9s4.031,-9 9,-9z"/>
 </g>
</svg>