<svg width="38" height="38" viewBox="0 0 38 38" fill="none" xmlns="http://www.w3.org/2000/svg">
<g clip-path="url(#clip0)">
<path d="M37.8902 17.5692L37.1673 15.4985C36.2584 12.6323 34.4964 10.1781 32.0706 8.4003C29.9415 6.83993 27.4693 5.92407 24.8634 5.721V3.82227C24.8634 3.20744 24.3649 2.70898 23.7501 2.70898H1.11328C0.498453 2.70898 0 3.20744 0 3.82227V28.7598C0 29.3746 0.498453 29.873 1.11328 29.873H3.63805C3.63768 29.8978 3.63672 29.9225 3.63672 29.9473C3.63672 31.3543 4.18141 32.6874 5.17052 33.7009C6.17122 34.7263 7.49795 35.291 8.90625 35.291C10.3146 35.291 11.6413 34.7263 12.642 33.7009C13.6311 32.6874 14.1758 31.3543 14.1758 29.9473C14.1758 29.9225 14.1748 29.8978 14.1744 29.873H25.0131C25.0127 29.8978 25.0117 29.9225 25.0117 29.9473C25.0117 31.3543 25.5565 32.6874 26.5455 33.7009C27.5462 34.7263 28.8729 35.291 30.2812 35.291C31.6896 35.291 33.0163 34.7263 34.017 33.7009C35.006 32.6874 35.5508 31.3543 35.5508 29.9473C35.5508 29.9225 35.5498 29.8978 35.5494 29.873H36.8867C37.5015 29.873 38 29.3746 38 28.7598V18.0723C38 17.9147 37.8971 17.5891 37.8902 17.5692ZM35.0491 16.1853C35.0525 16.1959 35.056 16.2065 35.0597 16.217L35.3188 16.959H24.8633V7.95566C29.584 8.39295 33.5979 11.5895 35.0491 16.1853ZM2.22656 4.93555H22.6367V27.6465H2.22656V4.93555ZM11.9492 29.9473C11.9492 31.6369 10.5557 33.0645 8.90625 33.0645C7.25681 33.0645 5.86328 31.6369 5.86328 29.9473C5.86328 29.9224 5.86536 29.8978 5.86595 29.873H11.9466C11.9471 29.8978 11.9492 29.9224 11.9492 29.9473ZM33.3242 29.9473C33.3242 31.6369 31.9308 33.0645 30.2812 33.0645C28.6317 33.0645 27.2383 31.6369 27.2383 29.9473C27.2383 29.9224 27.2404 29.8978 27.241 29.873H33.3216C33.3221 29.8978 33.3242 29.9224 33.3242 29.9473ZM24.8633 27.6465V19.1855H35.7734V27.6465H24.8633Z" fill="white"/>
<path d="M6.53125 20.9668H18.4062C19.0211 20.9668 19.5195 20.4683 19.5195 19.8535C19.5195 19.2387 19.0211 18.7402 18.4062 18.7402H18.3078C18.0766 16.1221 16.1184 13.9935 13.582 13.5038V12.7285C13.582 12.1137 13.0836 11.6152 12.4688 11.6152C11.8539 11.6152 11.3555 12.1137 11.3555 12.7285V13.5038C8.81919 13.9935 6.86086 16.1221 6.62974 18.7402H6.53125C5.91642 18.7402 5.41797 19.2387 5.41797 19.8535C5.41797 20.4683 5.91642 20.9668 6.53125 20.9668ZM12.4688 15.623C14.2977 15.623 15.8156 16.9801 16.0684 18.7402H8.86899C9.12186 16.9801 10.6398 15.623 12.4688 15.623Z" fill="white"/>
<path d="M30.2812 21.709H28.5C27.8852 21.709 27.3867 22.2074 27.3867 22.8223C27.3867 23.4371 27.8852 23.9355 28.5 23.9355H30.2812C30.8961 23.9355 31.3945 23.4371 31.3945 22.8223C31.3945 22.2074 30.8961 21.709 30.2812 21.709Z" fill="white"/>
</g>
<defs>
<clipPath id="clip0">
<rect width="38" height="38" fill="white"/>
</clipPath>
</defs>
</svg>
