<svg width="32" height="32" xmlns="http://www.w3.org/2000/svg">

 <title/>
 <g>
  <title>background</title>
  <rect fill="none" id="canvas_background" height="402" width="582" y="-1" x="-1"/>
 </g>
 <g>
  <title>Layer 1</title>
  <path fill="#ffffff" id="svg_1" d="m28,9l-17,0a1,1 0 0 1 0,-2l17,0a1,1 0 0 1 0,2z"/>
  <path fill="#ffffff" id="svg_2" d="m7,9l-3,0a1,1 0 0 1 0,-2l3,0a1,1 0 0 1 0,2z"/>
  <path fill="#ffffff" id="svg_3" d="m21,17l-17,0a1,1 0 0 1 0,-2l17,0a1,1 0 0 1 0,2z"/>
  <path fill="#ffffff" id="svg_4" d="m11,25l-7,0a1,1 0 0 1 0,-2l7,0a1,1 0 0 1 0,2z"/>
  <path fill="#ffffff" id="svg_5" d="m9,11a3,3 0 1 1 3,-3a3,3 0 0 1 -3,3zm0,-4a1,1 0 1 0 1,1a1,1 0 0 0 -1,-1z"/>
  <path fill="#ffffff" id="svg_6" d="m23,19a3,3 0 1 1 3,-3a3,3 0 0 1 -3,3zm0,-4a1,1 0 1 0 1,1a1,1 0 0 0 -1,-1z"/>
  <path fill="#ffffff" id="svg_7" d="m13,27a3,3 0 1 1 3,-3a3,3 0 0 1 -3,3zm0,-4a1,1 0 1 0 1,1a1,1 0 0 0 -1,-1z"/>
  <path fill="#ffffff" id="svg_8" d="m28,17l-3,0a1,1 0 0 1 0,-2l3,0a1,1 0 0 1 0,2z"/>
  <path fill="#ffffff" id="svg_9" d="m28,25l-13,0a1,1 0 0 1 0,-2l13,0a1,1 0 0 1 0,2z"/>
  <rect stroke="null" x="9.683373" y="31.657183" fill-opacity="0" fill="#000000" id="svg_10" width="9.72824" height="4.36514" class="cls-1"/>
 </g>
</svg>