<svg width="38" height="31" viewBox="0 0 38 31" fill="none" xmlns="http://www.w3.org/2000/svg">
<path fill-rule="evenodd" clip-rule="evenodd" d="M29.925 27.405C26.9694 27.405 24.5417 25.0084 24.5417 22.0908V16.7765H29.925C32.8806 16.7765 35.3083 19.1731 35.3083 22.0908C35.3083 25.0084 32.8806 27.405 29.925 27.405ZM21.0056 13.2336H15.6222C12.6667 13.2336 10.2389 10.837 10.2389 7.91933C10.2389 5.00168 12.6667 2.60504 15.6222 2.60504C18.5778 2.60504 21.0056 5.00168 21.0056 7.91933V13.2336ZM29.925 14.1193H24.1194L30.6111 1.66723H28.6056L23.6972 11.0975V7.91933C23.6972 3.54286 20.0556 0 15.6222 0C11.1889 0 7.54722 3.54286 7.54722 7.97143C7.54722 12.3479 11.1361 15.9429 15.6222 15.9429H21.1639L15.3056 27.1445L2.05833 1.66723H0L15.3056 31L21.85 18.3916V22.0387C21.85 26.4151 25.4389 30.0101 29.925 30.0101C34.4111 30.0101 38 26.4672 38 22.0908C38 17.7143 34.4111 14.1193 29.925 14.1193Z" fill="#F2F2F2"/>
</svg>
