<svg width="121" height="29" viewBox="0 0 121 29" fill="none" xmlns="http://www.w3.org/2000/svg">
<g clip-path="url(#clip0)">
<path fill-rule="evenodd" clip-rule="evenodd" d="M26.775 25.637C24.1306 25.637 21.9583 23.395 21.9583 20.6655V15.6941H26.775C29.4194 15.6941 31.5917 17.9361 31.5917 20.6655C31.5917 23.395 29.4194 25.637 26.775 25.637ZM18.7944 12.3798H13.9778C11.3333 12.3798 9.16111 10.1378 9.16111 7.4084C9.16111 4.67899 11.3333 2.43697 13.9778 2.43697C16.6222 2.43697 18.7944 4.67899 18.7944 7.4084V12.3798ZM26.775 13.2084H21.5806L27.3889 1.55966H25.5944L21.2028 10.3815V7.4084C21.2028 3.31429 17.9444 0 13.9778 0C10.0111 0 6.75278 3.31429 6.75278 7.45714C6.75278 11.5513 9.96389 14.9143 13.9778 14.9143H18.9361L13.6944 25.3933L1.84167 1.55966H0L13.6944 29L19.55 17.205V20.6168C19.55 24.7109 22.7611 28.0739 26.775 28.0739C30.7889 28.0739 34 24.7597 34 20.6655C34 16.5714 30.7889 13.2084 26.775 13.2084Z" fill="black"/>
<path fill-rule="evenodd" clip-rule="evenodd" d="M60.0667 13.7395H56.4667L53 0.49585H56.4L58.3333 9.03366L60.2667 0.49585H63.5333L60.0667 13.7395Z" fill="black"/>
<path fill-rule="evenodd" clip-rule="evenodd" d="M70.0667 2.84883C68.7333 2.84883 68.4 4.52951 68.4 7.08413C68.4 9.63875 68.7333 11.3194 70.0667 11.3194C71.4 11.3194 71.7333 9.63875 71.7333 7.08413C71.7333 4.32783 71.4 2.84883 70.0667 2.84883ZM70.0667 13.9413C66.4 13.9413 65.0667 10.6471 65.0667 7.0169C65.0667 3.38664 66.4667 0.0925293 70.0667 0.0925293C73.7333 0.0925293 75.0667 3.31942 75.0667 7.0169C75.0667 10.5799 73.6667 13.9413 70.0667 13.9413Z" fill="black"/>
<path fill-rule="evenodd" clip-rule="evenodd" d="M84.2 13.6052L81.4667 7.01694V6.94972L84.2 0.428711H88L84.8 6.94972L88.1334 13.538H84.2V13.6052ZM77.8667 13.6052V0.495937H81.2V13.6052H77.8667Z" fill="black"/>
<path fill-rule="evenodd" clip-rule="evenodd" d="M94.6 10.7816H98.4V13.6051H90V13.269L94 3.25215H90.2V0.49585H98.6667V0.89921L94.6 10.7816Z" fill="black"/>
<path fill-rule="evenodd" clip-rule="evenodd" d="M105.733 3.78999L104.8 8.63033H106.733L105.733 3.78999ZM107.667 13.6051L107.2 11.3194H104.333L103.867 13.6051H100.533L104 0.294189H107.6L111.067 13.6051H107.667Z" fill="black"/>
<path fill-rule="evenodd" clip-rule="evenodd" d="M113.533 13.6051V0.49585H116.867V10.7816H121V13.6051H113.533Z" fill="black"/>
<path fill-rule="evenodd" clip-rule="evenodd" d="M56.9333 26.1764V26.5797C56.9333 28.2604 56.2 28.9999 55 28.9999C53.8 28.9999 53 28.2604 53 26.5797V25.9075C53 24.2268 53.8 23.4873 55 23.4873C56.0667 23.4873 56.7333 24.0924 56.9333 25.2352H56.0667C55.9333 24.6302 55.6 24.294 55 24.294C54.2667 24.294 53.9333 24.7646 53.9333 25.9075V26.5797C53.9333 27.7226 54.3333 28.1932 55 28.1932C55.6667 28.1932 56 27.7898 56.0667 26.9831H55V26.1764H56.9333Z" fill="black"/>
<path fill-rule="evenodd" clip-rule="evenodd" d="M62.2001 27.0505H63.6001L62.8667 24.8992L62.2001 27.0505ZM60.6667 28.8656L62.5334 23.5547H63.4001L65.2667 28.8656H64.3334L64.0001 27.79H62.0667L61.7334 28.8656H60.6667Z" fill="black"/>
<path fill-rule="evenodd" clip-rule="evenodd" d="M72.0667 24.8992C71.8 24.5631 71.5333 24.2942 70.9333 24.2942C70.4 24.2942 70.0667 24.5631 70.0667 24.9664C70.0667 25.5043 70.4667 25.7059 71.2 25.8404C72.2667 26.0421 72.8 26.4454 72.8 27.4538C72.8 28.2606 72.2667 29.0001 71 29.0001C70.0667 29.0001 69.4667 28.7312 69 28.1261L69.6667 27.6555C70 28.0589 70.2667 28.2606 70.8667 28.2606C71.6 28.2606 71.8 27.9244 71.8 27.5211C71.8 27.1177 71.5333 26.8488 70.6667 26.6471C69.6667 26.4454 69.0667 25.9076 69.0667 25.0337C69.0667 24.227 69.6 23.5547 70.8 23.5547C71.6667 23.5547 72.2 23.8236 72.6 24.4286L72.0667 24.8992Z" fill="black"/>
<path fill-rule="evenodd" clip-rule="evenodd" d="M80.6667 23.5547V24.3614H79.1334V28.8656H78.2667V24.3614H76.7334V23.5547H80.6667Z" fill="black"/>
<path fill-rule="evenodd" clip-rule="evenodd" d="M86.5334 25.9749C87.2667 25.9749 87.6667 25.7732 87.6667 25.1681C87.6667 24.5631 87.2667 24.3614 86.5334 24.3614H85.6667V25.9749H86.5334ZM87.7334 28.8656L86.7334 26.7143H85.6667V28.8656H84.8V23.5547H86.6001C87.8001 23.5547 88.5334 24.0925 88.5334 25.1681C88.5334 25.9076 88.2001 26.3782 87.6001 26.5799L88.7334 28.8656H87.7334Z" fill="black"/>
<path fill-rule="evenodd" clip-rule="evenodd" d="M93.6001 26.5797C93.6001 27.7226 94.0001 28.1932 94.6667 28.1932C95.4001 28.1932 95.7334 27.7226 95.7334 26.5797V25.9075C95.7334 24.7646 95.3334 24.294 94.6667 24.294C94.0001 24.294 93.6001 24.7646 93.6001 25.9075V26.5797ZM94.6667 28.9999C93.4667 28.9999 92.6667 28.2604 92.6667 26.5797V25.9075C92.6667 24.2268 93.4667 23.4873 94.6667 23.4873C95.8667 23.4873 96.6667 24.2268 96.6667 25.9075V26.5797C96.6667 28.2604 95.8667 28.9999 94.6667 28.9999Z" fill="black"/>
<path fill-rule="evenodd" clip-rule="evenodd" d="M101.867 28.1261H102.8C103.533 28.1261 103.867 27.8572 103.867 27.3194C103.867 26.7816 103.533 26.5127 102.733 26.5127H101.933V28.1261H101.867ZM101.867 25.7732H102.733C103.4 25.7732 103.667 25.5043 103.667 25.0337C103.667 24.6303 103.467 24.3614 102.6 24.3614H101.867V25.7732ZM102.667 23.5547C103.933 23.5547 104.533 24.0253 104.533 24.9664C104.533 25.5043 104.2 25.9748 103.733 26.1093C104.333 26.311 104.667 26.7143 104.667 27.3866C104.667 28.1933 104.133 28.9328 102.8 28.9328H100.933V23.6219H102.667V23.5547Z" fill="black"/>
<path fill-rule="evenodd" clip-rule="evenodd" d="M110.067 27.0505H111.467L110.733 24.8992L110.067 27.0505ZM108.533 28.8656L110.4 23.5547H111.267L113.133 28.8656H112.2L111.867 27.79H109.933L109.6 28.8656H108.533Z" fill="black"/>
<path fill-rule="evenodd" clip-rule="evenodd" d="M118.867 25.9749C119.6 25.9749 120 25.7732 120 25.1681C120 24.5631 119.667 24.3614 118.867 24.3614H118V25.9749H118.867ZM120.067 28.8656L119.067 26.7143H118.067V28.8656H117.2V23.5547H119C120.2 23.5547 120.933 24.0925 120.933 25.1681C120.933 25.9076 120.6 26.3782 120 26.5799L121.133 28.8656H120.067Z" fill="black"/>
</g>
<defs>
<clipPath id="clip0">
<rect width="121" height="29" fill="white"/>
</clipPath>
</defs>
</svg>
