<svg width="68" height="88" viewBox="0 0 68 88" fill="none" xmlns="http://www.w3.org/2000/svg">
<g clip-path="url(#clip0)">
<path fill-rule="evenodd" clip-rule="evenodd" d="M47.8 35.3613C44.0667 35.3613 41 32.2689 41 28.5042V21.6471H47.8C51.5333 21.6471 54.6 24.7395 54.6 28.5042C54.6 32.2689 51.5333 35.3613 47.8 35.3613ZM36.5333 17.0756H29.7333C26 17.0756 22.9333 13.9832 22.9333 10.2185C22.9333 6.45378 26 3.36134 29.7333 3.36134C33.4667 3.36134 36.5333 6.45378 36.5333 10.2185V17.0756ZM47.8 18.2185H40.4667L48.6667 2.15126H46.1333L39.9333 14.3193V10.2185C39.9333 4.57143 35.3333 0 29.7333 0C24.1333 0 19.5333 4.57143 19.5333 10.2857C19.5333 15.9328 24.0667 20.5714 29.7333 20.5714H36.7333L29.3333 35.0252L12.6 2.15126H10L29.3333 40L37.6 23.7311V28.437C37.6 34.084 42.1333 38.7227 47.8 38.7227C53.4667 38.7227 58 34.1513 58 28.5042C58 22.8571 53.4667 18.2185 47.8 18.2185Z" fill="black"/>
<path fill-rule="evenodd" clip-rule="evenodd" d="M7.06667 72.7395H3.46667L0 59.4958H3.4L5.33333 68.0337L7.26667 59.4958H10.5333L7.06667 72.7395Z" fill="black"/>
<path fill-rule="evenodd" clip-rule="evenodd" d="M17.0667 61.8488C15.7333 61.8488 15.4 63.5295 15.4 66.0841C15.4 68.6388 15.7333 70.3194 17.0667 70.3194C18.4 70.3194 18.7333 68.6388 18.7333 66.0841C18.7333 63.3278 18.4 61.8488 17.0667 61.8488ZM17.0667 72.9413C13.4 72.9413 12.0667 69.6471 12.0667 66.0169C12.0667 62.3866 13.4667 59.0925 17.0667 59.0925C20.7333 59.0925 22.0667 62.3194 22.0667 66.0169C22.0667 69.5799 20.6667 72.9413 17.0667 72.9413Z" fill="black"/>
<path fill-rule="evenodd" clip-rule="evenodd" d="M31.2 72.6052L28.4667 66.0169V65.9497L31.2 59.4287H35L31.8 65.9497L35.1334 72.538H31.2V72.6052ZM24.8667 72.6052V59.4959H28.2V72.6052H24.8667Z" fill="black"/>
<path fill-rule="evenodd" clip-rule="evenodd" d="M41.6 69.7816H45.4V72.6051H37V72.269L41 62.2522H37.2V59.4958H45.6667V59.8992L41.6 69.7816Z" fill="black"/>
<path fill-rule="evenodd" clip-rule="evenodd" d="M52.7334 62.79L51.8001 67.6303H53.7334L52.7334 62.79ZM54.6668 72.6051L54.2001 70.3194H51.3334L50.8668 72.6051H47.5334L51.0001 59.2942H54.6001L58.0668 72.6051H54.6668Z" fill="black"/>
<path fill-rule="evenodd" clip-rule="evenodd" d="M60.5334 72.6051V59.4958H63.8668V69.7816H68.0001V72.6051H60.5334Z" fill="black"/>
<path fill-rule="evenodd" clip-rule="evenodd" d="M3.93333 85.1764V85.5797C3.93333 87.2604 3.2 87.9999 2 87.9999C0.8 87.9999 0 87.2604 0 85.5797V84.9075C0 83.2268 0.8 82.4873 2 82.4873C3.06667 82.4873 3.73333 83.0924 3.93333 84.2352H3.06667C2.93333 83.6302 2.6 83.294 2 83.294C1.26667 83.294 0.933333 83.7646 0.933333 84.9075V85.5797C0.933333 86.7226 1.33333 87.1932 2 87.1932C2.66667 87.1932 3 86.7898 3.06667 85.9831H2V85.1764H3.93333Z" fill="black"/>
<path fill-rule="evenodd" clip-rule="evenodd" d="M9.20008 86.0505H10.6001L9.86675 83.8992L9.20008 86.0505ZM7.66675 87.8656L9.53341 82.5547H10.4001L12.2667 87.8656H11.3334L11.0001 86.79H9.06675L8.73341 87.8656H7.66675Z" fill="black"/>
<path fill-rule="evenodd" clip-rule="evenodd" d="M19.0667 83.8992C18.8 83.5631 18.5333 83.2942 17.9333 83.2942C17.4 83.2942 17.0667 83.5631 17.0667 83.9664C17.0667 84.5043 17.4667 84.7059 18.2 84.8404C19.2667 85.0421 19.8 85.4454 19.8 86.4538C19.8 87.2606 19.2667 88.0001 18 88.0001C17.0667 88.0001 16.4667 87.7312 16 87.1261L16.6667 86.6555C17 87.0589 17.2667 87.2606 17.8667 87.2606C18.6 87.2606 18.8 86.9244 18.8 86.5211C18.8 86.1177 18.5333 85.8488 17.6667 85.6471C16.6667 85.4454 16.0667 84.9076 16.0667 84.0337C16.0667 83.227 16.6 82.5547 17.8 82.5547C18.6667 82.5547 19.2 82.8236 19.6 83.4286L19.0667 83.8992Z" fill="black"/>
<path fill-rule="evenodd" clip-rule="evenodd" d="M27.6667 82.5547V83.3614H26.1334V87.8656H25.2667V83.3614H23.7334V82.5547H27.6667Z" fill="black"/>
<path fill-rule="evenodd" clip-rule="evenodd" d="M33.5334 84.9749C34.2667 84.9749 34.6667 84.7732 34.6667 84.1681C34.6667 83.5631 34.2667 83.3614 33.5334 83.3614H32.6667V84.9749H33.5334ZM34.7334 87.8656L33.7334 85.7143H32.6667V87.8656H31.8V82.5547H33.6001C34.8001 82.5547 35.5334 83.0925 35.5334 84.1681C35.5334 84.9076 35.2001 85.3782 34.6001 85.5799L35.7334 87.8656H34.7334Z" fill="black"/>
<path fill-rule="evenodd" clip-rule="evenodd" d="M40.6001 85.5797C40.6001 86.7226 41.0001 87.1932 41.6667 87.1932C42.4001 87.1932 42.7334 86.7226 42.7334 85.5797V84.9075C42.7334 83.7646 42.3334 83.294 41.6667 83.294C41.0001 83.294 40.6001 83.7646 40.6001 84.9075V85.5797ZM41.6667 87.9999C40.4667 87.9999 39.6667 87.2604 39.6667 85.5797V84.9075C39.6667 83.2268 40.4667 82.4873 41.6667 82.4873C42.8667 82.4873 43.6667 83.2268 43.6667 84.9075V85.5797C43.6667 87.2604 42.8667 87.9999 41.6667 87.9999Z" fill="black"/>
<path fill-rule="evenodd" clip-rule="evenodd" d="M48.8667 87.1261H49.8C50.5333 87.1261 50.8667 86.8572 50.8667 86.3194C50.8667 85.7816 50.5333 85.5127 49.7333 85.5127H48.9333V87.1261H48.8667ZM48.8667 84.7732H49.7333C50.4 84.7732 50.6667 84.5043 50.6667 84.0337C50.6667 83.6303 50.4667 83.3614 49.6 83.3614H48.8667V84.7732ZM49.6667 82.5547C50.9333 82.5547 51.5334 83.0253 51.5334 83.9664C51.5334 84.5043 51.2 84.9748 50.7333 85.1093C51.3333 85.311 51.6667 85.7143 51.6667 86.3866C51.6667 87.1933 51.1333 87.9328 49.8 87.9328H47.9333V82.6219H49.6667V82.5547Z" fill="black"/>
<path fill-rule="evenodd" clip-rule="evenodd" d="M57.0668 86.0505H58.4668L57.7334 83.8992L57.0668 86.0505ZM55.5334 87.8656L57.4001 82.5547H58.2668L60.1334 87.8656H59.2001L58.8668 86.79H56.9334L56.6001 87.8656H55.5334Z" fill="black"/>
<path fill-rule="evenodd" clip-rule="evenodd" d="M65.8666 84.9749C66.6 84.9749 67 84.7732 67 84.1681C67 83.5631 66.6666 83.3614 65.8666 83.3614H65V84.9749H65.8666ZM67.0666 87.8656L66.0666 85.7143H65.0666V87.8656H64.2V82.5547H66C67.2 82.5547 67.9333 83.0925 67.9333 84.1681C67.9333 84.9076 67.6 85.3782 67 85.5799L68.1333 87.8656H67.0666Z" fill="black"/>
</g>
<defs>
<clipPath id="clip0">
<rect width="68" height="88" fill="white"/>
</clipPath>
</defs>
</svg>
