<svg width="100" height="90" xmlns="http://www.w3.org/2000/svg">

 <g>
  <title>background</title>
  <rect fill="none" id="canvas_background" height="402" width="582" y="-1" x="-1"/>
 </g>
 <g>
  <title>Layer 1</title>
  <path fill="#ffffff" id="svg_2" d="m61.885,67.24c-12.457,-4.491 -16.438,-8.282 -16.438,-16.395c0,-4.871 3.803,-3.28 5.473,-12.2c0.693,-3.7 4.053,-0.06 4.695,-8.507c0,-3.366 -1.834,-4.203 -1.834,-4.203s0.932,-4.982 1.297,-8.816c0.453,-4.777 -2.789,-17.119 -20.078,-17.119s-20.531,12.342 -20.078,17.119c0.365,3.834 1.297,8.816 1.297,8.816s-1.834,0.837 -1.834,4.203c0.643,8.447 4.002,4.807 4.693,8.507c1.672,8.919 5.475,7.329 5.475,12.2c0,8.113 -3.98,11.904 -16.438,16.395c-1.5,0.54 -5.076,1.381 -8.115,2.693l0,20.067l80,0c0,0 0,-7.396 0,-10.526c0,-3.133 -5.619,-7.728 -18.115,-12.234zm23.115,-27.24l0,-15l-10,0l0,15l-15,0l0,10l15,0l0,15l10,0l0,-15l15,0l0,-10l-15,0z"/>
 </g>
</svg>