<svg width="56" height="56" viewBox="0 0 56 56" fill="none" xmlns="http://www.w3.org/2000/svg">
<g clip-path="url(#clip0)">
<path d="M7.34431 50.6033C7.51553 50.7746 7.74829 50.8709 7.9904 50.8709C8.23296 50.8709 8.46527 50.7746 8.63649 50.6033L31.1007 28.0522L32.0357 33.8804C32.0981 34.271 32.4053 34.5769 32.7964 34.6384C32.8427 34.6455 32.89 34.6491 32.9368 34.6491C33.2811 34.6491 33.5958 34.4556 33.7515 34.1488L37.9522 25.8642L47.1276 27.3C47.52 27.3633 47.9088 27.1658 48.088 26.8109C48.2677 26.4564 48.1973 26.0261 47.9141 25.7474L41.3338 19.1929L45.5344 10.9083C45.7115 10.5556 45.6419 10.1289 45.3614 9.8507C45.0814 9.57247 44.6538 9.50603 44.3025 9.68572L36.0344 13.919L29.4531 7.36087C29.1731 7.08175 28.7446 7.01487 28.3928 7.195C28.0406 7.37514 27.8448 7.76173 27.9072 8.15232L29.3773 17.3242L21.1079 21.557C20.7557 21.7371 20.5595 22.1233 20.6219 22.5139C20.6843 22.9045 20.9911 23.2103 21.3817 23.2719L27.2125 24.185L4.74837 46.7406C4.39166 47.0969 4.39166 47.6752 4.74837 48.0319L7.34431 50.6033ZM28.5694 28.0014L27.2781 26.7101L29.4469 24.5328L30.562 24.7076L30.7444 25.8214L28.5694 28.0014ZM24.4445 21.9021L30.8001 18.6476C31.1524 18.4674 31.3486 18.0813 31.2862 17.6907L30.1545 10.639L35.2135 15.6789C35.494 15.9589 35.9229 16.0258 36.2756 15.8452L42.6322 12.5898L39.4022 18.9588C39.2234 19.312 39.2916 19.74 39.5721 20.0191L44.632 25.059L37.5758 23.9559C37.1848 23.893 36.7982 24.091 36.6207 24.4454L33.3907 30.8149L32.2595 23.7632C32.1971 23.3722 31.8899 23.0663 31.4988 23.0052L24.4445 21.9021ZM25.9895 28.0041L27.2808 29.2953L11.2088 45.4302L9.91485 44.1416L25.9895 28.0041ZM8.62579 45.4355L9.91975 46.725L7.98639 48.6655L6.69243 47.376L8.62579 45.4355Z" fill="#E1915C"/>
<path d="M7.22753 0.257812C6.83203 0.257812 6.48157 0.512859 6.35895 0.889187L5.25137 4.29799H1.66644C1.2705 4.29799 0.920031 4.55259 0.797858 4.92891C0.67524 5.30524 0.809451 5.71724 1.12915 5.94999L4.03142 8.05636L2.92206 11.4665C2.79944 11.8424 2.93365 12.2548 3.2538 12.4876C3.57394 12.7199 4.00735 12.7199 4.32749 12.4871L7.22753 10.3794L10.1276 12.4871C10.4477 12.7199 10.8811 12.7199 11.2013 12.4876C11.5214 12.2548 11.6556 11.8424 11.533 11.4665L10.4236 8.05636L13.3237 5.94999C13.6438 5.71724 13.7776 5.30569 13.6559 4.92981C13.5341 4.55348 13.1841 4.29843 12.7886 4.29799H9.2037L8.09612 0.889187C7.97395 0.512859 7.62304 0.257812 7.22753 0.257812ZM9.9782 6.12433L8.81444 6.96884C8.49474 7.20159 8.36098 7.61359 8.48315 7.98992L8.92681 9.35968L7.76438 8.51384C7.44423 8.28108 7.01083 8.28108 6.69069 8.51384L5.52826 9.35968L5.97192 7.98992C6.09409 7.61359 5.96033 7.20159 5.64063 6.96884L4.47686 6.12433H5.9144C6.31035 6.12478 6.66126 5.86973 6.78388 5.49341L7.22753 4.12632L7.67119 5.49608C7.7947 5.87107 8.14472 6.12478 8.53978 6.12433H9.9782Z" fill="#E1915C"/>
<path d="M47.693 46.0218C47.5708 45.6455 47.2203 45.3909 46.8244 45.3909H41.781L40.223 40.5941C40.1 40.2191 39.7504 39.9658 39.3558 39.9658C38.9612 39.9658 38.6111 40.2191 38.4881 40.5941L36.9266 45.3909H31.8832C31.4877 45.3909 31.1368 45.6455 31.0146 46.0218C30.8924 46.3982 31.0262 46.8102 31.3463 47.0429L35.4271 50.0076L33.8683 54.8049C33.7461 55.1808 33.8798 55.5932 34.2 55.826C34.5201 56.0583 34.9535 56.0583 35.2737 55.8255L39.3549 52.8604L43.4339 55.8255C43.754 56.0583 44.1874 56.0583 44.5075 55.826C44.8277 55.5932 44.9615 55.1808 44.8393 54.8049L43.2814 50.0076L47.3617 47.0429C47.6814 46.8102 47.8151 46.3982 47.693 46.0218ZM41.6717 48.9201C41.3511 49.1524 41.2169 49.5649 41.3391 49.9412L42.234 52.6963L39.8917 50.993C39.5716 50.7603 39.1382 50.7603 38.818 50.993L36.4736 52.6963L37.3694 49.9412C37.492 49.5649 37.3582 49.1529 37.0381 48.9201L34.694 47.2173H37.5905C37.986 47.2173 38.3369 46.9622 38.4591 46.5863L39.3549 43.8312L40.2489 46.5863C40.3711 46.9622 40.7215 47.2173 41.117 47.2173H44.0148L41.6717 48.9201Z" fill="#E1915C"/>
<path d="M6.31429 28.0404C8.83577 28.0404 10.8802 25.996 10.8802 23.4746C10.8802 20.9526 8.83577 18.9087 6.31429 18.9087C3.7928 18.9087 1.74841 20.9526 1.74841 23.4746C1.75153 25.9947 3.79369 28.0373 6.31429 28.0404ZM6.31429 20.735C7.82718 20.735 9.05381 21.9617 9.05381 23.4746C9.05381 24.9875 7.82718 26.2141 6.31429 26.2141C4.80139 26.2141 3.57476 24.9875 3.57476 23.4746C3.57476 21.9617 4.80139 20.735 6.31429 20.735Z" fill="#E1915C"/>
<path d="M51.973 34.433C51.973 32.4153 50.3375 30.7803 48.3203 30.7803C46.3031 30.7803 44.6676 32.4153 44.6676 34.433C44.6676 36.4502 46.3031 38.0857 48.3203 38.0857C50.3375 38.0857 51.973 36.4502 51.973 34.433ZM46.494 34.433C46.494 33.4244 47.3117 32.6066 48.3203 32.6066C49.3289 32.6066 50.1467 33.4244 50.1467 34.433C50.1467 35.4416 49.3289 36.2593 48.3203 36.2593C47.3117 36.2593 46.494 35.4416 46.494 34.433Z" fill="#E1915C"/>
<path d="M35.5359 0.64502H37.3623V6.12407H35.5359V0.64502Z" fill="#E1915C"/>
<path d="M48.5874 5.47905L54.0665 0L55.3578 1.29129L49.8787 6.77033L48.5874 5.47905Z" fill="#E1915C"/>
<path d="M49.2335 17.9951H54.7126V19.8215H49.2335V17.9951Z" fill="#E1915C"/>
</g>
<defs>
<clipPath id="clip0">
<rect width="56" height="56" fill="white"/>
</clipPath>
</defs>
</svg>
