<svg width="65" height="65" viewBox="0 0 65 65" fill="none" xmlns="http://www.w3.org/2000/svg">
<g clip-path="url(#clip0)">
<path d="M43.8427 58.8436H45.7469V53.2562H63.0957V58.8436H65V42.7827H43.8427V58.8436ZM63.0957 44.687V51.3521H45.7469V44.687H63.0957Z" fill="#E1915C"/>
<path d="M61.1914 17.8164C59.0913 17.8164 57.3828 19.5249 57.3828 21.625V24.6916H59.2871V21.6251C59.2871 20.5751 60.1414 19.7208 61.1914 19.7208H63.0957V40.8782H65V17.8164H61.1914Z" fill="#E1915C"/>
<path d="M43.8427 40.8783H45.7469C45.7469 39.8283 46.6012 38.974 47.6512 38.974H61.1914V37.0697H59.2871V26.5962H57.3828V37.0697H47.6512C45.5512 37.0696 43.8427 38.7781 43.8427 40.8783Z" fill="#E1915C"/>
<path d="M1.9043 19.7206H3.80859C4.85862 19.7206 5.71289 20.5748 5.71289 21.6249V24.6914H7.61719V21.625C7.61719 19.5249 5.90865 17.8164 3.80859 17.8164H0V40.8781H1.9043V19.7206Z" fill="#E1915C"/>
<path d="M17.3488 37.0692H7.61719V26.5957H5.71289V37.0692H3.80859V38.9735H17.3488C18.3988 38.9735 19.2531 39.8278 19.2531 40.8778H21.1574C21.1574 38.7777 19.4488 37.0692 17.3488 37.0692Z" fill="#E1915C"/>
<path d="M0 58.8436H1.9043V53.2562H19.2531V58.8436H21.1574V42.7827H0V58.8436ZM19.2531 44.687V51.3521H1.9043V44.687H19.2531Z" fill="#E1915C"/>
<path d="M36.3085 55.0343V34.2129C36.3085 33.1629 37.1628 32.3086 38.2128 32.3086H53.5742V24.6914H33.4521V26.5957H51.6699V30.4043H13.3299V26.5957H31.5478V24.6914H11.4256V32.3086H26.7871C27.8371 32.3086 28.6914 33.1629 28.6914 34.2129V55.0343C28.6914 56.0844 27.8371 56.9386 26.7871 56.9386H22.9785V58.8429H26.7871H38.2128H42.0214V56.9386H38.2128C37.1628 56.9386 36.3085 56.0844 36.3085 55.0343ZM30.0833 32.3086H34.9166C34.5915 32.8692 34.4042 33.5195 34.4042 34.2129V55.0343C34.4042 55.7278 34.5915 56.378 34.9166 56.9386H30.0833C30.4084 56.378 30.5956 55.7278 30.5956 55.0343V34.2129C30.5956 33.5195 30.4084 32.8692 30.0833 32.3086Z" fill="#E1915C"/>
<path d="M47.1609 20.8833H44.2664C43.8048 15.0958 39.1742 10.465 33.3867 10.0035V8.06104H35.291V6.15674H29.5781V8.06104H31.4824V10.0037C28.4387 10.2492 25.5869 11.6641 23.5451 13.9701L24.9708 15.2324C26.863 13.0952 29.5834 11.8695 32.4344 11.8695C37.6084 11.8695 41.8726 15.8331 42.3536 20.8832H22.515C22.6589 19.3754 23.1423 17.9202 23.9363 16.6278L22.3137 15.631C21.3355 17.2234 20.7529 19.0225 20.604 20.8832H17.7079V22.7875H47.1609V20.8833Z" fill="#E1915C"/>
<path d="M39.243 17.5162C37.9606 15.4983 35.8712 14.1602 33.5105 13.8452L33.2587 15.7328C35.0605 15.9732 36.6561 16.9954 37.6359 18.5375L39.243 17.5162Z" fill="#E1915C"/>
<path d="M31.3586 13.8452C30.5816 13.9489 29.8264 14.165 29.1135 14.4875L29.8986 16.2224C30.4418 15.9766 31.0178 15.8118 31.6104 15.7328L31.3586 13.8452Z" fill="#E1915C"/>
</g>
<defs>
<clipPath id="clip0">
<rect width="65" height="65" fill="white"/>
</clipPath>
</defs>
</svg>
