<svg width="64" height="62" viewBox="0 0 64 62" fill="none" xmlns="http://www.w3.org/2000/svg">
<path d="M61.2465 53.5743H60.5101C60.5175 53.4097 60.5225 53.2449 60.5225 53.0806C60.5225 49.4197 58.7369 46.1686 55.9912 44.1508C57.359 43.5759 58.3219 42.2225 58.3219 40.6484C58.3219 40.1306 57.9023 39.7109 57.3844 39.7109C56.8665 39.7109 56.4469 40.1306 56.4469 40.6484C56.4469 41.7083 55.5845 42.5708 54.5245 42.5708H53.9408C53.9934 42.195 54.0209 41.8151 54.0209 41.4337C54.0209 40.1296 53.719 38.8814 53.1236 37.7238C52.8866 37.2632 52.3214 37.0819 51.861 37.3189C51.4005 37.5558 51.2192 38.1211 51.4561 38.5816C51.9137 39.4712 52.1459 40.4309 52.1459 41.4337C52.1459 41.7318 52.1224 42.0286 52.0807 42.3218C51.4017 42.1556 50.6985 42.0516 49.9772 42.0174C50.0425 41.7074 50.0776 41.3906 50.0776 41.0719C50.0776 38.5434 48.0206 36.4864 45.4922 36.4864C44.2471 36.4864 43.1097 36.9828 42.2791 37.7973C42.198 37.3883 42.0765 36.9936 41.9176 36.6183C43.036 35.6926 44.4369 35.1858 45.898 35.1858C46.8929 35.1858 47.8456 35.4143 48.7299 35.8652C49.1911 36.1006 49.7556 35.9172 49.9909 35.4558C50.2261 34.9946 50.0428 34.4299 49.5815 34.1948C48.431 33.6083 47.1917 33.3109 45.898 33.3109C44.0827 33.3109 42.3394 33.9134 40.9191 35.0172C40.3915 34.4057 39.7449 33.9001 39.0148 33.5371L39.0176 33.5289C39.7437 31.5257 39.2642 29.2812 37.8332 27.7458L40.0125 21.7306C40.6076 21.3696 41.0595 20.8217 41.3 20.1578L47.0718 4.2233C47.3505 3.4538 47.313 2.62168 46.9659 1.8803C46.6189 1.13905 46.0039 0.577301 45.2342 0.298551C44.4645 0.0199256 43.6325 0.0573007 42.8913 0.404551C42.15 0.751551 41.5883 1.36655 41.3095 2.13618L38.4897 9.92068C38.3135 10.4075 38.5651 10.9451 39.0519 11.1214C39.5386 11.2978 40.0762 11.0462 40.2526 10.5593L43.0724 2.77468C43.1805 2.47593 43.3985 2.2373 43.6862 2.10268C43.9741 1.96793 44.297 1.95355 44.5955 2.06155C44.8943 2.16968 45.1329 2.38768 45.2676 2.67543C45.4022 2.96318 45.4169 3.28605 45.3086 3.58468L39.5369 19.5193C39.4288 19.8181 39.2108 20.0567 38.923 20.1914C38.6354 20.326 38.3124 20.3407 38.0136 20.2324C37.7149 20.1243 37.4762 19.9063 37.3416 19.6187C37.207 19.3309 37.1924 19.0081 37.3006 18.7093L38.7513 14.7042C38.9275 14.2173 38.6758 13.6799 38.189 13.5036C37.7021 13.3271 37.1648 13.5791 36.9884 14.0658L35.5378 18.0708C35.2971 18.7351 35.2928 19.4459 35.5191 20.1048L33.3405 26.1184C31.2588 26.3812 29.4533 27.7982 28.7274 29.8028L27.8927 32.1069C26.5051 31.4977 24.9954 31.1746 23.442 31.1746C23.1531 31.1746 22.8636 31.187 22.5756 31.2093V30.7919C22.5756 29.7495 23.4236 28.9016 24.466 28.9016C24.9839 28.9016 25.4035 28.4819 25.4035 27.9641C25.4035 27.4462 24.9839 27.0266 24.466 27.0266C22.5998 27.0266 21.0471 28.3914 20.752 30.1753C18.5159 28.6609 15.5748 28.2889 12.9245 29.4523C10.9378 30.3244 9.40938 31.9178 8.62088 33.9393C7.90775 35.7676 7.87962 37.7472 8.52475 39.5777H8.51825C7.50325 39.5777 6.6775 38.7521 6.6775 37.7369C6.6775 37.2191 6.25787 36.7994 5.74 36.7994C5.22212 36.7994 4.8025 37.2191 4.8025 37.7369C4.8025 39.2508 5.71312 40.5553 7.015 41.1338C4.36162 43.1592 2.64613 46.3538 2.64613 49.9419C2.64613 51.1942 2.85162 52.4113 3.25725 53.5744H2.75338C1.23525 53.5743 0 54.8096 0 56.3278V56.8071C0 59.6077 2.2785 61.8862 5.07912 61.8862H16.6555C17.1734 61.8862 17.593 61.4666 17.593 60.9487C17.593 60.4308 17.1734 60.0112 16.6555 60.0112H5.07912C3.31238 60.0112 1.875 58.5738 1.875 56.8071V56.3278C1.875 55.8434 2.26912 55.4493 2.7535 55.4493H61.2464C61.7308 55.4493 62.1249 55.8434 62.1249 56.3278V56.8071C62.1249 58.5738 60.6875 60.0112 58.9207 60.0112H21.0799C20.562 60.0112 20.1424 60.4308 20.1424 60.9487C20.1424 61.4666 20.562 61.8862 21.0799 61.8862H58.921C61.7216 61.8862 64.0001 59.6077 64.0001 56.8071V56.3278C64 54.8096 62.7647 53.5743 61.2465 53.5743ZM58.6475 53.0804C58.6475 53.2449 58.6424 53.4098 58.6335 53.5742H56.799C56.81 53.4097 56.8175 53.2449 56.8175 53.0804C56.8175 49.0159 53.5107 45.7092 49.4463 45.7092C48.0699 45.7092 46.7518 46.0849 45.6071 46.7858C45.5345 46.1439 45.408 45.5143 45.2275 44.9027C46.5249 44.2323 47.9723 43.8792 49.4463 43.8792C54.5198 43.8793 58.6475 48.0071 58.6475 53.0804ZM53.1012 53.5743C53.1229 53.4121 53.1351 53.2474 53.1351 53.0806C53.1351 51.0467 51.4804 49.3918 49.4464 49.3918C47.413 49.3918 45.7589 51.0466 45.7589 53.0806C45.7589 53.2474 45.7711 53.4119 45.7926 53.5743H44.2072C44.9965 52.2104 45.4779 50.7059 45.6283 49.1289C46.658 48.1328 48.0095 47.5843 49.4463 47.5843C52.4769 47.5843 54.9425 50.0499 54.9425 53.0806C54.9425 53.2451 54.9347 53.4101 54.9201 53.5743H53.1012ZM47.7041 53.5743C47.6591 53.4156 47.6338 53.2509 47.6338 53.0806C47.6338 52.0804 48.4469 51.2668 49.4463 51.2668C50.4464 51.2668 51.26 52.0804 51.26 53.0806C51.26 53.2513 51.2345 53.4159 51.1894 53.5743H47.7041ZM39.4811 53.5743C39.8387 53.2597 40.1679 52.9099 40.4614 52.5264C41.5934 52.0748 42.3957 50.9682 42.3957 49.6769V43.1561C43.3129 44.6092 43.8063 46.2928 43.8063 48.0531C43.8063 50.0667 43.168 51.9721 41.962 53.5743H39.4811ZM27.0135 53.5743C26.6031 51.9772 25.1395 50.7993 23.4425 50.7993C21.7447 50.7993 20.2808 51.9772 19.8703 53.5743H18.0219C18.4531 50.9531 20.7086 48.9906 23.4425 48.9906C26.1757 48.9906 28.4307 50.9531 28.8617 53.5743H27.0135ZM25.005 53.5743H21.8789C22.1961 53.0361 22.783 52.6743 23.4425 52.6743C24.1015 52.6742 24.6879 53.0359 25.005 53.5743ZM23.4425 47.1156C19.6691 47.1156 16.5746 49.9037 16.1279 53.5743H14.2894C14.7523 48.9436 18.7161 45.2856 23.4426 45.2856C28.1685 45.2856 32.1317 48.9434 32.5946 53.5743H30.756C30.3092 49.9037 27.2152 47.1156 23.4425 47.1156ZM9.59937 53.5743C8.714 52.5704 8.22625 51.2839 8.22625 49.9418C8.22625 46.9112 10.6919 44.4456 13.7225 44.4456C14.9052 44.4456 16.028 44.8164 16.9626 45.5018C16.5165 45.8247 16.0911 46.1821 15.6909 46.5742C15.6381 46.6258 15.5885 46.6798 15.537 46.7324C14.9865 46.4219 14.3601 46.2542 13.723 46.2542C11.6894 46.2542 10.0349 47.9086 10.0349 49.9422C10.0349 51.4906 11.0103 52.8601 12.4226 53.3932C12.4167 53.4536 12.4105 53.5138 12.4056 53.5743H9.59937ZM12.7769 51.4891C12.252 51.1664 11.9099 50.5857 11.9099 49.9421C11.9099 48.9424 12.7232 48.1291 13.723 48.1291C13.9237 48.1291 14.1184 48.1617 14.3027 48.2238C13.6152 49.2234 13.1022 50.3252 12.7769 51.4891ZM21.9925 42.5738C22.6134 41.9402 23.1158 41.2179 23.4923 40.4403C24.4261 40.4662 25.1841 41.2002 25.2485 42.1239C24.9766 42.5522 24.7339 42.9991 24.5228 43.4624C24.1659 43.4281 23.8054 43.4104 23.4425 43.4104C23.1899 43.4104 22.9391 43.4219 22.6894 43.4387C22.4705 43.1373 22.2378 42.8489 21.9925 42.5738ZM36.2612 48.8001C35.9544 49.4249 35.3018 49.8656 34.605 49.8656C33.9852 49.8656 33.4375 49.5524 33.1105 49.0764C33.071 49.0061 33.029 48.9369 32.988 48.8673C32.864 48.6222 32.7925 48.3461 32.7925 48.0531C32.7925 47.0537 33.6056 46.2406 34.605 46.2406C35.3018 46.2406 35.9544 46.6812 36.2612 47.3061V48.8001ZM34.1666 51.7136C34.3105 51.7307 34.4566 51.7406 34.605 51.7406C35.3449 51.7406 36.0431 51.5236 36.6315 51.1368C36.93 51.6861 37.3918 52.1337 37.9506 52.4161C37.004 53.1464 35.8414 53.5494 34.605 53.5494C34.562 53.5494 34.5187 53.5462 34.4755 53.5452C34.4232 52.9223 34.3199 52.3102 34.1666 51.7136ZM33.6273 42.6442C33.9486 42.5867 34.2762 42.5566 34.605 42.5566C35.1725 42.5566 35.7277 42.6432 36.2612 42.8118V44.7559C35.7585 44.5043 35.1951 44.3656 34.605 44.3656C33.0879 44.3656 31.7822 45.2867 31.217 46.5988C31.2089 46.5908 31.2013 46.5822 31.1931 46.5742C30.753 46.1429 30.2814 45.7553 29.786 45.4079C29.9682 45.0762 30.1849 44.7653 30.4328 44.4769C30.5564 44.4922 30.6819 44.5009 30.8096 44.5009C32.071 44.5009 33.1567 43.7352 33.6273 42.6442ZM33.9629 40.7123C34.1391 40.2737 34.568 39.9628 35.069 39.9628C35.6249 39.9628 36.0918 40.3457 36.2231 40.8613C35.6951 40.7428 35.1543 40.6816 34.605 40.6816C34.3904 40.6816 34.1763 40.6938 33.9629 40.7123ZM27.776 41.8873C27.8785 42.5758 28.211 43.1898 28.6921 43.6497C28.4985 43.9091 28.3239 44.1814 28.1661 44.4643C27.6082 44.2009 27.0286 43.9869 26.4333 43.8208C26.7961 43.1214 27.2476 42.4718 27.776 41.8873ZM27.7423 38.9809V39.3601C27.3435 39.6752 26.9681 40.0159 26.6184 40.3798C26.086 39.4796 25.1825 38.8246 24.1196 38.6263C24.2486 38.036 24.3132 37.4314 24.3089 36.8236C25.6631 37.0368 26.8818 37.7461 27.746 38.8352C27.7448 38.8837 27.7423 38.9319 27.7423 38.9809ZM45.4922 38.3614C46.9867 38.3614 48.2026 39.5774 48.2026 41.0719C48.2026 41.4254 48.1328 41.7753 48.0003 42.0993C46.7963 42.2573 45.6266 42.6122 44.5399 43.1496C44.0908 42.2417 43.5166 41.3917 42.8215 40.6244C43.0364 39.3251 44.1584 38.3614 45.4922 38.3614ZM40.5207 38.9809V49.6769C40.5207 50.3344 39.986 50.8692 39.3285 50.8692C38.671 50.8692 38.1362 50.3344 38.1362 49.6769V41.1551C38.1362 39.4638 36.7603 38.0878 35.069 38.0878C33.3778 38.0878 32.0018 39.4638 32.0018 41.1551V41.4337C32.0018 42.0912 31.467 42.6259 30.8095 42.6259C30.152 42.6259 29.6173 42.0912 29.6173 41.4337V38.9809C29.6173 36.6641 31.5021 34.7792 33.819 34.7792H36.319C38.6359 34.7791 40.5207 36.6639 40.5207 38.9809ZM30.4902 30.4409C31.0267 28.9598 32.445 27.9584 34.0192 27.9492C34.4119 27.9468 34.7615 27.7002 34.8952 27.3311L36.9074 21.7772C37.0561 21.8612 37.2113 21.9359 37.3751 21.9953C37.5389 22.0547 37.7056 22.0988 37.8736 22.1296L35.8624 27.6813C35.7287 28.0504 35.8391 28.4638 36.1391 28.7171C37.3429 29.7331 37.7912 31.4101 37.2549 32.8902L37.2253 32.9721C36.9295 32.9277 36.627 32.9042 36.3191 32.9042H36.0435L36.2594 32.3083C36.4356 31.8214 36.184 31.2839 35.6973 31.1075C35.2099 30.9312 34.6729 31.1831 34.4965 31.6697L34.0493 32.9042H33.8192C33.4596 32.9042 33.1077 32.9374 32.765 32.9976L33.391 31.2692C33.5672 30.7823 33.3155 30.2448 32.8288 30.0686C32.3429 29.8923 31.8046 30.1439 31.6281 30.6308L30.5079 33.7239C30.2024 33.4703 29.8854 33.2342 29.5578 33.0166L30.4902 30.4409ZM29.1815 35.0601C28.7847 35.5287 28.4568 36.0572 28.2153 36.6311C27.0541 35.6406 25.6132 35.0353 24.0656 34.9063C23.9567 34.4732 23.811 34.0451 23.6273 33.6262C23.5406 33.4287 23.4449 33.2381 23.3447 33.0511C23.3771 33.0507 23.4096 33.0494 23.442 33.0494C25.5462 33.0493 27.5554 33.7591 29.1815 35.0601ZM10.3676 34.6204C10.9741 33.0657 12.1498 31.8399 13.678 31.1691C16.832 29.7844 20.5253 31.2247 21.9101 34.3798C22.9464 36.7416 22.4116 39.4863 20.6306 41.2847C20.1791 40.9244 19.7015 40.6003 19.2017 40.3158C20.9725 39.0927 21.6899 36.7436 20.7936 34.7017C19.7786 32.3866 17.0681 31.3291 14.7519 32.3448C13.6301 32.8371 12.7675 33.7367 12.3226 34.8777C11.8778 36.0187 11.904 37.2648 12.3961 38.3856C12.477 38.5703 12.5719 38.7457 12.6741 38.9156C11.9075 38.9879 11.1634 39.1382 10.4499 39.3592C9.79688 37.8421 9.76663 36.1612 10.3676 34.6204ZM15.4028 38.9937C14.8757 38.7041 14.3549 38.1839 14.1135 37.6326C13.8225 36.9694 13.807 36.2331 14.0697 35.5586C14.3328 34.8842 14.8426 34.3527 15.5051 34.0617C16.875 33.4613 18.4765 34.0863 19.0766 35.4549C19.6772 36.8232 19.0527 38.4252 17.684 39.0261C17.404 39.1491 16.9794 39.2444 16.6807 39.2682C16.2621 39.1521 15.8355 39.0599 15.4028 38.9937ZM4.52125 49.9418C4.52125 44.8682 8.64887 40.7406 13.7225 40.7406C16.3511 40.7406 18.8304 41.8626 20.5644 43.7901C19.9144 43.9639 19.283 44.1956 18.6771 44.4847C17.3184 43.2478 15.5747 42.5707 13.7225 42.5707C9.658 42.5707 6.35125 45.8774 6.35125 49.9419C6.35125 51.2277 6.6855 52.4752 7.30888 53.5744H5.27163C4.77563 52.4256 4.52125 51.2059 4.52125 49.9418Z" fill="#E1915C"/>
</svg>
