<svg width="62" height="62" viewBox="0 0 62 62" fill="none" xmlns="http://www.w3.org/2000/svg">
<path d="M59.4184 27.6124H59.3031C59.0803 22.2509 56.887 17.2437 53.0651 13.4299C52.7107 13.0762 52.1366 13.0767 51.783 13.4313C51.4294 13.7858 51.4299 14.3597 51.7844 14.7133C55.2629 18.1846 57.268 22.736 57.4895 27.6124H18.0295C17.5287 27.6124 17.1229 28.0182 17.1229 28.5191C17.1229 29.0199 17.5287 29.4257 18.0295 29.4257H59.4184C59.7883 29.4257 60.0892 29.7265 60.0892 30.0964V31.1378C60.0892 31.5077 59.7883 31.8086 59.4184 31.8086H9.58697C9.2172 31.8086 8.91633 31.5077 8.91633 31.1378V30.0964C8.91633 29.7265 9.2172 29.4257 9.58697 29.4257H14.1658C14.6666 29.4257 15.0724 29.0199 15.0724 28.5191C15.0724 28.0182 14.6666 27.6124 14.1658 27.6124H11.5172C11.9926 17.2775 20.5472 9.0155 30.9973 9.0155H38.0082C41.9262 9.0155 45.7047 10.1726 48.9353 12.3619C49.3497 12.6425 49.9135 12.5344 50.1944 12.1199C50.4752 11.7054 50.367 11.1418 49.9524 10.8609C46.4205 8.46742 42.2903 7.20229 38.0082 7.20229H37.4036V5.61441L38.2079 4.49445C38.5568 4.009 38.7411 3.43639 38.7411 2.83851C38.7412 1.27335 37.4679 0 35.9026 0H33.1027C31.5375 0 30.2642 1.27335 30.2642 2.83851C30.2642 3.43639 30.4485 4.00912 30.7972 4.49433L31.6017 5.61441V7.20229H30.9973C19.547 7.20229 10.1781 16.2774 9.70132 27.6124H9.58697C8.2174 27.6124 7.10312 28.7267 7.10312 30.0964V31.1378C7.10312 32.4091 8.06352 33.4587 9.29649 33.6033L11.481 38.3293C12.1132 39.6969 13.275 40.7208 14.6538 41.2071C14.5509 41.3035 14.449 41.401 14.3489 41.5011L10.6724 45.1777C9.94659 45.1118 9.20015 45.362 8.66127 45.9221L0.35099 54.5557C0.00370074 54.9164 0.0147008 55.4904 0.375408 55.8375C0.736115 56.1848 1.31018 56.1738 1.65722 55.8131L9.9675 47.1792C10.2094 46.9277 10.6076 46.9076 10.8737 47.1332L18.8202 53.8674C18.9565 53.9829 19.0391 54.1447 19.0527 54.3229C19.0663 54.5011 19.0092 54.6732 18.8921 54.8081L13.9469 60.4987C13.6184 60.8767 13.6586 61.4493 14.0365 61.7777C14.2082 61.9269 14.4199 62 14.6308 62C14.8842 62 15.1362 61.8944 15.3155 61.6881L20.2607 55.9976C20.6983 55.494 20.9114 54.8504 20.8606 54.1851C20.8595 54.1713 20.8568 54.1579 20.8556 54.1442L23.2583 51.7414H35.3299C37.248 51.7414 39.0825 51.0271 40.4955 49.73L42.7344 47.675C43.1033 47.3364 43.1279 46.7629 42.7893 46.394C42.4506 46.0251 41.8771 46.0004 41.5083 46.3391L39.2694 48.3942C38.1917 49.3834 36.7927 49.928 35.3298 49.928H22.8828C22.6424 49.928 22.4119 50.0235 22.2417 50.1936L19.9701 52.4652L12.3805 46.0334L15.6309 42.7829C17.6823 40.7317 20.4095 39.6021 23.3103 39.6021H36.7605C37.4621 39.6021 38.0328 40.1729 38.0328 40.8744C38.0328 41.5758 37.462 42.1465 36.7605 42.1465H29.6761C29.1753 42.1465 28.7695 42.5523 28.7695 43.0531C28.7695 43.5539 29.1753 43.9597 29.6761 43.9597H36.7605C37.5535 43.9597 38.2772 43.659 38.8243 43.1656L47.4464 38.3882C47.7769 38.2051 48.1821 38.2382 48.4784 38.4723C48.6966 38.6448 48.8223 38.8929 48.8326 39.1707C48.8427 39.4486 48.7356 39.7051 48.5309 39.893L44.3549 43.726C43.986 44.0646 43.9615 44.6382 44.3 45.007C44.4788 45.2017 44.7231 45.3006 44.9682 45.3006C45.1872 45.3006 45.4069 45.2217 45.5809 45.0619L49.4376 41.5224H52.5305C54.6676 41.5224 56.6279 40.269 57.5244 38.3292L59.7089 33.6033C60.942 33.4588 61.9024 32.4091 61.9024 31.1378V30.0964C61.9024 28.7267 60.7881 27.6124 59.4184 27.6124ZM33.2447 4.79375L32.2699 3.43651C32.144 3.26123 32.0774 3.0544 32.0774 2.83851C32.0774 2.27315 32.5374 1.8132 33.1027 1.8132H35.9026C36.468 1.8132 36.9279 2.27328 36.9279 2.83851C36.9279 3.0544 36.8613 3.26123 36.7352 3.43663L35.7606 4.79375C35.6499 4.94775 35.5904 5.13282 35.5904 5.3226V7.20229H33.4149V5.3226C33.4149 5.13282 33.3554 4.94787 33.2447 4.79375ZM55.8786 37.5685C55.2774 38.8689 53.9632 39.7092 52.5305 39.7092H50.6C50.6367 39.5118 50.6522 39.3091 50.6447 39.1044C50.6151 38.299 50.2354 37.5504 49.6033 37.0504C48.7315 36.3612 47.54 36.2637 46.5679 36.8024L39.8274 40.5372C39.6587 38.9939 38.348 37.789 36.7606 37.789H23.3104C20.8986 37.789 18.59 38.4587 16.5959 39.7092H16.4749C15.0422 39.7092 13.728 38.8689 13.1268 37.5685L11.3025 33.6218H57.7029L55.8786 37.5685Z" fill="#E1915C"/>
</svg>
